<svg viewBox="0 0 100 100" xmlns="http://www.w3.org/2000/svg" role="img" aria-label="TeleTudo">
  <!-- fundo azul-marinho -->
  <rect x="0" y="0" width="100" height="100" rx="22" fill="#0000A0"/>
  <!-- cartão branco quadrado com cantos levemente "dobrados" (sup-direito e inf-esquerdo) -->
  <g fill="#ffffff">
    <rect x="28" y="28" width="44" height="44" rx="12"/>
    <rect x="62" y="24" width="12" height="12" rx="5"/>
    <rect x="26" y="64" width="12" height="12" rx="5"/>
  </g>
  <!-- espada azul grande e centralizada, com pedestal -->
  <g transform="translate(32,33) scale(1.5)" fill="#0000A0">
    <path d="M12 2 C12 2 5 8.5 5 13.5 C5 16 7 17.5 9 17.5 C10 17.5 11 17 11.5 16.2 C11.3 18 10.5 19.5 9 20.5 L9 21 L15 21 L15 20.5 C13.5 19.5 12.7 18 12.5 16.2 C13 17 14 17.5 15 17.5 C17 17.5 19 16 19 13.5 C19 8.5 12 2 12 2 Z"/>
  </g>
</svg>
